<mxfile host="app.diagrams.net" modified="2023-12-27T22:59:37.235Z" agent="Mozilla/5.0 (Windows NT 10.0; Win64; x64) AppleWebKit/537.36 (KHTML, like Gecko) Chrome/120.0.0.0 Safari/537.36" version="22.1.15" etag="1EEORoOULQqbBtmKcwvK" type="github">
  <diagram name="PÃ¡gina-1" id="TxiBogEfavmrkpQEjWvA">
    <mxGraphModel>
      <root>
        <mxCell id="0" />
        <mxCell id="1" parent="0" />
      </root>
    </mxGraphModel>
  </diagram>
</mxfile>
